# xmcd
#
# Track frame offsets: 
#        150
#        31723
#        47473
#        76416
#        95501
#        126582
#        158074
#        175044
#        202443
#        218923
#        237875
#        262188
#        292350
#        332272
#
# Disc length: 4673 seconds
#
# Revision: 2
# Processed by: cddbd v1.5.2PL0 Copyright (c) Steve Scherf et al.
# Submitted via: ExactAudioCopyFreeDBPlugin 1.0
#
DISCID=cd123f0e
DTITLE=Various Artist - Techno Love Parade Vol.3
DYEAR=2000
DGENRE=Techno
TTITLE0=Sebastian - Toccata (Club Mix)
TTITLE1=Zombie Nation - Kernkraft 400 (DJ Gius Video Mix)
TTITLE2=Chaan - Funkiners Of You (Groove Gangster Remix)
TTITLE3=DJ Darkzone - Des Teufels Antwort (Short Cut)
TTITLE4=Unix - Attenzione (Club Mix)
TTITLE5=D.A.T. - Millenium Crash (DJ Valium Mix)
TTITLE6=Samurai - Tanzen (DJ Session Mix)
TTITLE7=Funkee Bass - Sax In Da House (Original Mix)
TTITLE8=DJ Mario Laroche - Eternity Of Love Remixes (Radio Mix)
TTITLE9=The Sexual Preacher - Don't Dance...Fuck (Holiday Soft Mix)
TTITLE10=DJ E-Maxx - Rock The Pussy (Pussy Remix)
TTITLE11=Nebular B. - Liquid (Trilithon Mix)
TTITLE12=Jerolle - Eternal Flow (Planet E Team Remix)
TTITLE13=Millenium Club - Welcome 2000 (Short Cut)
EXTD=
EXTT0=
EXTT1=
EXTT2=
EXTT3=
EXTT4=
EXTT5=
EXTT6=
EXTT7=
EXTT8=
EXTT9=
EXTT10=
EXTT11=
EXTT12=
EXTT13=
PLAYORDER=
